<mxfile host="app.diagrams.net" modified="2024-03-16T05:01:46.588Z" agent="Mozilla/5.0 (Windows NT 10.0; Win64; x64) AppleWebKit/537.36 (KHTML, like Gecko) Chrome/122.0.0.0 Safari/537.36" etag="d8LjYldkIk-3Y-xSu0c0" version="22.1.22" type="device">
  <diagram name="PÃ¡gina-1" id="0iZxoZYAKJawDYUBfow8">
    <mxGraphModel dx="1687" dy="908" grid="1" gridSize="10" guides="1" tooltips="1" connect="1" arrows="1" fold="1" page="1" pageScale="1" pageWidth="1920" pageHeight="1200" math="0" shadow="0">
      <root>
        <mxCell id="0" />
        <mxCell id="1" parent="0" />
        <mxCell id="1D7wFX3wcKnUC9iQgYK2-1" value="" style="sketch=0;points=[[0,0,0],[0.25,0,0],[0.5,0,0],[0.75,0,0],[1,0,0],[0,1,0],[0.25,1,0],[0.5,1,0],[0.75,1,0],[1,1,0],[0,0.25,0],[0,0.5,0],[0,0.75,0],[1,0.25,0],[1,0.5,0],[1,0.75,0]];outlineConnect=0;fontColor=#232F3E;fillColor=#8C4FFF;strokeColor=#ffffff;dashed=0;verticalLabelPosition=bottom;verticalAlign=top;align=center;html=1;fontSize=12;fontStyle=0;aspect=fixed;shape=mxgraph.aws4.resourceIcon;resIcon=mxgraph.aws4.api_gateway;" vertex="1" parent="1">
          <mxGeometry x="60" y="269" width="151" height="151" as="geometry" />
        </mxCell>
        <mxCell id="1D7wFX3wcKnUC9iQgYK2-4" value="" style="sketch=0;points=[[0,0,0],[0.25,0,0],[0.5,0,0],[0.75,0,0],[1,0,0],[0,1,0],[0.25,1,0],[0.5,1,0],[0.75,1,0],[1,1,0],[0,0.25,0],[0,0.5,0],[0,0.75,0],[1,0.25,0],[1,0.5,0],[1,0.75,0]];outlineConnect=0;fontColor=#232F3E;fillColor=#DD344C;strokeColor=#ffffff;dashed=0;verticalLabelPosition=bottom;verticalAlign=top;align=center;html=1;fontSize=12;fontStyle=0;aspect=fixed;shape=mxgraph.aws4.resourceIcon;resIcon=mxgraph.aws4.cognito;" vertex="1" parent="1">
          <mxGeometry x="745" y="200" width="220" height="220" as="geometry" />
        </mxCell>
        <mxCell id="1D7wFX3wcKnUC9iQgYK2-5" value="" style="sketch=0;points=[[0,0,0],[0.25,0,0],[0.5,0,0],[0.75,0,0],[1,0,0],[0,1,0],[0.25,1,0],[0.5,1,0],[0.75,1,0],[1,1,0],[0,0.25,0],[0,0.5,0],[0,0.75,0],[1,0.25,0],[1,0.5,0],[1,0.75,0]];outlineConnect=0;fontColor=#232F3E;fillColor=#ED7100;strokeColor=#ffffff;dashed=0;verticalLabelPosition=bottom;verticalAlign=top;align=center;html=1;fontSize=12;fontStyle=0;aspect=fixed;shape=mxgraph.aws4.resourceIcon;resIcon=mxgraph.aws4.lambda;" vertex="1" parent="1">
          <mxGeometry x="461" y="140" width="78" height="78" as="geometry" />
        </mxCell>
        <mxCell id="1D7wFX3wcKnUC9iQgYK2-240" style="edgeStyle=orthogonalEdgeStyle;rounded=0;orthogonalLoop=1;jettySize=auto;html=1;" edge="1" parent="1" source="1D7wFX3wcKnUC9iQgYK2-6" target="1D7wFX3wcKnUC9iQgYK2-4">
          <mxGeometry relative="1" as="geometry" />
        </mxCell>
        <mxCell id="1D7wFX3wcKnUC9iQgYK2-6" value="" style="sketch=0;points=[[0,0,0],[0.25,0,0],[0.5,0,0],[0.75,0,0],[1,0,0],[0,1,0],[0.25,1,0],[0.5,1,0],[0.75,1,0],[1,1,0],[0,0.25,0],[0,0.5,0],[0,0.75,0],[1,0.25,0],[1,0.5,0],[1,0.75,0]];outlineConnect=0;fontColor=#232F3E;fillColor=#ED7100;strokeColor=#ffffff;dashed=0;verticalLabelPosition=bottom;verticalAlign=top;align=center;html=1;fontSize=12;fontStyle=0;aspect=fixed;shape=mxgraph.aws4.resourceIcon;resIcon=mxgraph.aws4.lambda;" vertex="1" parent="1">
          <mxGeometry x="461" y="301" width="78" height="78" as="geometry" />
        </mxCell>
        <mxCell id="1D7wFX3wcKnUC9iQgYK2-248" style="edgeStyle=orthogonalEdgeStyle;rounded=0;orthogonalLoop=1;jettySize=auto;html=1;" edge="1" parent="1" source="1D7wFX3wcKnUC9iQgYK2-7" target="1D7wFX3wcKnUC9iQgYK2-4">
          <mxGeometry relative="1" as="geometry" />
        </mxCell>
        <mxCell id="1D7wFX3wcKnUC9iQgYK2-7" value="" style="sketch=0;points=[[0,0,0],[0.25,0,0],[0.5,0,0],[0.75,0,0],[1,0,0],[0,1,0],[0.25,1,0],[0.5,1,0],[0.75,1,0],[1,1,0],[0,0.25,0],[0,0.5,0],[0,0.75,0],[1,0.25,0],[1,0.5,0],[1,0.75,0]];outlineConnect=0;fontColor=#232F3E;fillColor=#ED7100;strokeColor=#ffffff;dashed=0;verticalLabelPosition=bottom;verticalAlign=top;align=center;html=1;fontSize=12;fontStyle=0;aspect=fixed;shape=mxgraph.aws4.resourceIcon;resIcon=mxgraph.aws4.lambda;" vertex="1" parent="1">
          <mxGeometry x="461" y="460" width="78" height="78" as="geometry" />
        </mxCell>
        <mxCell id="1D7wFX3wcKnUC9iQgYK2-268" style="edgeStyle=orthogonalEdgeStyle;rounded=0;orthogonalLoop=1;jettySize=auto;html=1;" edge="1" parent="1" source="1D7wFX3wcKnUC9iQgYK2-8" target="1D7wFX3wcKnUC9iQgYK2-4">
          <mxGeometry relative="1" as="geometry">
            <Array as="points">
              <mxPoint x="890" y="659" />
            </Array>
          </mxGeometry>
        </mxCell>
        <mxCell id="1D7wFX3wcKnUC9iQgYK2-8" value="" style="sketch=0;points=[[0,0,0],[0.25,0,0],[0.5,0,0],[0.75,0,0],[1,0,0],[0,1,0],[0.25,1,0],[0.5,1,0],[0.75,1,0],[1,1,0],[0,0.25,0],[0,0.5,0],[0,0.75,0],[1,0.25,0],[1,0.5,0],[1,0.75,0]];outlineConnect=0;fontColor=#232F3E;fillColor=#ED7100;strokeColor=#ffffff;dashed=0;verticalLabelPosition=bottom;verticalAlign=top;align=center;html=1;fontSize=12;fontStyle=0;aspect=fixed;shape=mxgraph.aws4.resourceIcon;resIcon=mxgraph.aws4.lambda;" vertex="1" parent="1">
          <mxGeometry x="461" y="620" width="78" height="78" as="geometry" />
        </mxCell>
        <mxCell id="1D7wFX3wcKnUC9iQgYK2-9" value="" style="sketch=0;points=[[0,0,0],[0.25,0,0],[0.5,0,0],[0.75,0,0],[1,0,0],[0,1,0],[0.25,1,0],[0.5,1,0],[0.75,1,0],[1,1,0],[0,0.25,0],[0,0.5,0],[0,0.75,0],[1,0.25,0],[1,0.5,0],[1,0.75,0]];outlineConnect=0;fontColor=#232F3E;fillColor=#ED7100;strokeColor=#ffffff;dashed=0;verticalLabelPosition=bottom;verticalAlign=top;align=center;html=1;fontSize=12;fontStyle=0;aspect=fixed;shape=mxgraph.aws4.resourceIcon;resIcon=mxgraph.aws4.lambda;" vertex="1" parent="1">
          <mxGeometry x="461" y="781" width="78" height="78" as="geometry" />
        </mxCell>
        <mxCell id="1D7wFX3wcKnUC9iQgYK2-12" style="edgeStyle=orthogonalEdgeStyle;rounded=0;orthogonalLoop=1;jettySize=auto;html=1;entryX=0;entryY=0.5;entryDx=0;entryDy=0;entryPerimeter=0;exitX=0.5;exitY=0;exitDx=0;exitDy=0;exitPerimeter=0;" edge="1" parent="1" source="1D7wFX3wcKnUC9iQgYK2-1" target="1D7wFX3wcKnUC9iQgYK2-5">
          <mxGeometry relative="1" as="geometry" />
        </mxCell>
        <mxCell id="1D7wFX3wcKnUC9iQgYK2-16" value="/auth/token" style="text;strokeColor=none;fillColor=none;html=1;fontSize=20;fontStyle=1;verticalAlign=middle;align=center;" vertex="1" parent="1">
          <mxGeometry x="260" y="140" width="100" height="40" as="geometry" />
        </mxCell>
        <mxCell id="1D7wFX3wcKnUC9iQgYK2-17" style="edgeStyle=orthogonalEdgeStyle;rounded=0;orthogonalLoop=1;jettySize=auto;html=1;entryX=0.5;entryY=0;entryDx=0;entryDy=0;entryPerimeter=0;" edge="1" parent="1" source="1D7wFX3wcKnUC9iQgYK2-5" target="1D7wFX3wcKnUC9iQgYK2-4">
          <mxGeometry relative="1" as="geometry" />
        </mxCell>
        <mxCell id="1D7wFX3wcKnUC9iQgYK2-26" value="cognito-client-credentials&lt;br style=&quot;font-size: 13px;&quot;&gt;function" style="text;strokeColor=none;fillColor=none;html=1;fontSize=13;fontStyle=1;verticalAlign=middle;align=center;" vertex="1" parent="1">
          <mxGeometry x="450" y="219" width="100" height="40" as="geometry" />
        </mxCell>
        <mxCell id="1D7wFX3wcKnUC9iQgYK2-239" value="cognito-sign-up&lt;br style=&quot;font-size: 13px;&quot;&gt;function" style="text;strokeColor=none;fillColor=none;html=1;fontSize=13;fontStyle=1;verticalAlign=middle;align=center;" vertex="1" parent="1">
          <mxGeometry x="450" y="380" width="100" height="40" as="geometry" />
        </mxCell>
        <mxCell id="1D7wFX3wcKnUC9iQgYK2-241" value="/user/sign-up" style="text;strokeColor=none;fillColor=none;html=1;fontSize=20;fontStyle=1;verticalAlign=middle;align=center;" vertex="1" parent="1">
          <mxGeometry x="280" y="301" width="100" height="40" as="geometry" />
        </mxCell>
        <mxCell id="1D7wFX3wcKnUC9iQgYK2-244" value="" style="group" vertex="1" connectable="0" parent="1">
          <mxGeometry x="280" y="350" width="100" height="90" as="geometry" />
        </mxCell>
        <mxCell id="1D7wFX3wcKnUC9iQgYK2-15" value="" style="sketch=0;points=[[0,0,0],[0.25,0,0],[0.5,0,0],[0.75,0,0],[1,0,0],[0,1,0],[0.25,1,0],[0.5,1,0],[0.75,1,0],[1,1,0],[0,0.25,0],[0,0.5,0],[0,0.75,0],[1,0.25,0],[1,0.5,0],[1,0.75,0]];outlineConnect=0;fontColor=#232F3E;fillColor=#DD344C;strokeColor=#ffffff;dashed=0;verticalLabelPosition=bottom;verticalAlign=top;align=center;html=1;fontSize=12;fontStyle=0;aspect=fixed;shape=mxgraph.aws4.resourceIcon;resIcon=mxgraph.aws4.cognito;" vertex="1" parent="1D7wFX3wcKnUC9iQgYK2-244">
          <mxGeometry x="30" width="40" height="40" as="geometry" />
        </mxCell>
        <mxCell id="1D7wFX3wcKnUC9iQgYK2-243" value="cognito&amp;nbsp;authorizer" style="text;strokeColor=none;fillColor=none;html=1;fontSize=13;fontStyle=1;verticalAlign=middle;align=center;" vertex="1" parent="1D7wFX3wcKnUC9iQgYK2-244">
          <mxGeometry y="50" width="100" height="40" as="geometry" />
        </mxCell>
        <mxCell id="1D7wFX3wcKnUC9iQgYK2-246" value="/user/sign-up/confirm" style="text;strokeColor=none;fillColor=none;html=1;fontSize=19;fontStyle=1;verticalAlign=middle;align=center;" vertex="1" parent="1">
          <mxGeometry x="240" y="470" width="100" height="40" as="geometry" />
        </mxCell>
        <mxCell id="1D7wFX3wcKnUC9iQgYK2-247" value="cognito-confirm-sign-up&lt;br style=&quot;font-size: 13px;&quot;&gt;function" style="text;strokeColor=none;fillColor=none;html=1;fontSize=13;fontStyle=1;verticalAlign=middle;align=center;" vertex="1" parent="1">
          <mxGeometry x="450" y="550" width="100" height="40" as="geometry" />
        </mxCell>
        <mxCell id="1D7wFX3wcKnUC9iQgYK2-249" value="AWS Cognito" style="text;strokeColor=none;fillColor=none;html=1;fontSize=24;fontStyle=1;verticalAlign=middle;align=center;" vertex="1" parent="1">
          <mxGeometry x="790" y="120" width="100" height="40" as="geometry" />
        </mxCell>
        <mxCell id="1D7wFX3wcKnUC9iQgYK2-251" value="/user/info" style="text;strokeColor=none;fillColor=none;html=1;fontSize=20;fontStyle=1;verticalAlign=middle;align=center;" vertex="1" parent="1">
          <mxGeometry x="260" y="610" width="100" height="40" as="geometry" />
        </mxCell>
        <mxCell id="1D7wFX3wcKnUC9iQgYK2-252" value="" style="group" vertex="1" connectable="0" parent="1">
          <mxGeometry x="260" y="510" width="100" height="90" as="geometry" />
        </mxCell>
        <mxCell id="1D7wFX3wcKnUC9iQgYK2-253" value="" style="sketch=0;points=[[0,0,0],[0.25,0,0],[0.5,0,0],[0.75,0,0],[1,0,0],[0,1,0],[0.25,1,0],[0.5,1,0],[0.75,1,0],[1,1,0],[0,0.25,0],[0,0.5,0],[0,0.75,0],[1,0.25,0],[1,0.5,0],[1,0.75,0]];outlineConnect=0;fontColor=#232F3E;fillColor=#DD344C;strokeColor=#ffffff;dashed=0;verticalLabelPosition=bottom;verticalAlign=top;align=center;html=1;fontSize=12;fontStyle=0;aspect=fixed;shape=mxgraph.aws4.resourceIcon;resIcon=mxgraph.aws4.cognito;" vertex="1" parent="1D7wFX3wcKnUC9iQgYK2-252">
          <mxGeometry x="30" width="40" height="40" as="geometry" />
        </mxCell>
        <mxCell id="1D7wFX3wcKnUC9iQgYK2-254" value="cognito&amp;nbsp;authorizer" style="text;strokeColor=none;fillColor=none;html=1;fontSize=13;fontStyle=1;verticalAlign=middle;align=center;" vertex="1" parent="1D7wFX3wcKnUC9iQgYK2-252">
          <mxGeometry y="50" width="100" height="40" as="geometry" />
        </mxCell>
        <mxCell id="1D7wFX3wcKnUC9iQgYK2-255" value="" style="group" vertex="1" connectable="0" parent="1">
          <mxGeometry x="260" y="650" width="100" height="130" as="geometry" />
        </mxCell>
        <mxCell id="1D7wFX3wcKnUC9iQgYK2-256" value="" style="sketch=0;points=[[0,0,0],[0.25,0,0],[0.5,0,0],[0.75,0,0],[1,0,0],[0,1,0],[0.25,1,0],[0.5,1,0],[0.75,1,0],[1,1,0],[0,0.25,0],[0,0.5,0],[0,0.75,0],[1,0.25,0],[1,0.5,0],[1,0.75,0]];outlineConnect=0;fontColor=#232F3E;fillColor=#DD344C;strokeColor=#ffffff;dashed=0;verticalLabelPosition=bottom;verticalAlign=top;align=center;html=1;fontSize=12;fontStyle=0;aspect=fixed;shape=mxgraph.aws4.resourceIcon;resIcon=mxgraph.aws4.cognito;" vertex="1" parent="1D7wFX3wcKnUC9iQgYK2-255">
          <mxGeometry x="30" width="40" height="40" as="geometry" />
        </mxCell>
        <mxCell id="1D7wFX3wcKnUC9iQgYK2-257" value="cognito&amp;nbsp;authorizer" style="text;strokeColor=none;fillColor=none;html=1;fontSize=13;fontStyle=1;verticalAlign=middle;align=center;" vertex="1" parent="1D7wFX3wcKnUC9iQgYK2-255">
          <mxGeometry y="50" width="100" height="40" as="geometry" />
        </mxCell>
        <mxCell id="1D7wFX3wcKnUC9iQgYK2-258" value="AWS API Gateway" style="text;strokeColor=none;fillColor=none;html=1;fontSize=24;fontStyle=1;verticalAlign=middle;align=center;" vertex="1" parent="1">
          <mxGeometry x="100" y="210" width="100" height="40" as="geometry" />
        </mxCell>
        <mxCell id="1D7wFX3wcKnUC9iQgYK2-262" style="edgeStyle=orthogonalEdgeStyle;rounded=0;orthogonalLoop=1;jettySize=auto;html=1;entryX=0;entryY=0.5;entryDx=0;entryDy=0;entryPerimeter=0;" edge="1" parent="1" source="1D7wFX3wcKnUC9iQgYK2-1" target="1D7wFX3wcKnUC9iQgYK2-15">
          <mxGeometry relative="1" as="geometry" />
        </mxCell>
        <mxCell id="1D7wFX3wcKnUC9iQgYK2-263" style="edgeStyle=orthogonalEdgeStyle;rounded=0;orthogonalLoop=1;jettySize=auto;html=1;entryX=0;entryY=0.5;entryDx=0;entryDy=0;entryPerimeter=0;" edge="1" parent="1" source="1D7wFX3wcKnUC9iQgYK2-15" target="1D7wFX3wcKnUC9iQgYK2-6">
          <mxGeometry relative="1" as="geometry" />
        </mxCell>
        <mxCell id="1D7wFX3wcKnUC9iQgYK2-264" style="edgeStyle=orthogonalEdgeStyle;rounded=0;orthogonalLoop=1;jettySize=auto;html=1;entryX=0;entryY=0.5;entryDx=0;entryDy=0;entryPerimeter=0;" edge="1" parent="1" source="1D7wFX3wcKnUC9iQgYK2-1" target="1D7wFX3wcKnUC9iQgYK2-253">
          <mxGeometry relative="1" as="geometry">
            <Array as="points">
              <mxPoint x="150" y="530" />
            </Array>
          </mxGeometry>
        </mxCell>
        <mxCell id="1D7wFX3wcKnUC9iQgYK2-265" style="edgeStyle=orthogonalEdgeStyle;rounded=0;orthogonalLoop=1;jettySize=auto;html=1;entryX=0;entryY=0.5;entryDx=0;entryDy=0;entryPerimeter=0;" edge="1" parent="1" source="1D7wFX3wcKnUC9iQgYK2-253" target="1D7wFX3wcKnUC9iQgYK2-7">
          <mxGeometry relative="1" as="geometry" />
        </mxCell>
        <mxCell id="1D7wFX3wcKnUC9iQgYK2-266" style="edgeStyle=orthogonalEdgeStyle;rounded=0;orthogonalLoop=1;jettySize=auto;html=1;entryX=0;entryY=0.5;entryDx=0;entryDy=0;entryPerimeter=0;" edge="1" parent="1" source="1D7wFX3wcKnUC9iQgYK2-1" target="1D7wFX3wcKnUC9iQgYK2-256">
          <mxGeometry relative="1" as="geometry">
            <Array as="points">
              <mxPoint x="120" y="670" />
            </Array>
          </mxGeometry>
        </mxCell>
        <mxCell id="1D7wFX3wcKnUC9iQgYK2-267" style="edgeStyle=orthogonalEdgeStyle;rounded=0;orthogonalLoop=1;jettySize=auto;html=1;entryX=0;entryY=0.5;entryDx=0;entryDy=0;entryPerimeter=0;" edge="1" parent="1" source="1D7wFX3wcKnUC9iQgYK2-256" target="1D7wFX3wcKnUC9iQgYK2-8">
          <mxGeometry relative="1" as="geometry" />
        </mxCell>
        <mxCell id="1D7wFX3wcKnUC9iQgYK2-269" value="cognito-user-info&lt;br style=&quot;font-size: 13px;&quot;&gt;function" style="text;strokeColor=none;fillColor=none;html=1;fontSize=13;fontStyle=1;verticalAlign=middle;align=center;" vertex="1" parent="1">
          <mxGeometry x="450" y="710" width="100" height="40" as="geometry" />
        </mxCell>
        <mxCell id="1D7wFX3wcKnUC9iQgYK2-271" value="" style="group" vertex="1" connectable="0" parent="1">
          <mxGeometry x="240" y="800" width="100" height="90" as="geometry" />
        </mxCell>
        <mxCell id="1D7wFX3wcKnUC9iQgYK2-272" value="" style="sketch=0;points=[[0,0,0],[0.25,0,0],[0.5,0,0],[0.75,0,0],[1,0,0],[0,1,0],[0.25,1,0],[0.5,1,0],[0.75,1,0],[1,1,0],[0,0.25,0],[0,0.5,0],[0,0.75,0],[1,0.25,0],[1,0.5,0],[1,0.75,0]];outlineConnect=0;fontColor=#232F3E;fillColor=#DD344C;strokeColor=#ffffff;dashed=0;verticalLabelPosition=bottom;verticalAlign=top;align=center;html=1;fontSize=12;fontStyle=0;aspect=fixed;shape=mxgraph.aws4.resourceIcon;resIcon=mxgraph.aws4.cognito;" vertex="1" parent="1D7wFX3wcKnUC9iQgYK2-271">
          <mxGeometry x="30" width="40" height="40" as="geometry" />
        </mxCell>
        <mxCell id="1D7wFX3wcKnUC9iQgYK2-273" value="cognito&amp;nbsp;authorizer" style="text;strokeColor=none;fillColor=none;html=1;fontSize=13;fontStyle=1;verticalAlign=middle;align=center;" vertex="1" parent="1D7wFX3wcKnUC9iQgYK2-271">
          <mxGeometry y="50" width="100" height="40" as="geometry" />
        </mxCell>
        <mxCell id="1D7wFX3wcKnUC9iQgYK2-274" style="edgeStyle=orthogonalEdgeStyle;rounded=0;orthogonalLoop=1;jettySize=auto;html=1;entryX=0;entryY=0.5;entryDx=0;entryDy=0;entryPerimeter=0;" edge="1" parent="1" source="1D7wFX3wcKnUC9iQgYK2-1" target="1D7wFX3wcKnUC9iQgYK2-272">
          <mxGeometry relative="1" as="geometry">
            <Array as="points">
              <mxPoint x="100" y="820" />
            </Array>
          </mxGeometry>
        </mxCell>
        <mxCell id="1D7wFX3wcKnUC9iQgYK2-275" value="/user/token" style="text;strokeColor=none;fillColor=none;html=1;fontSize=20;fontStyle=1;verticalAlign=middle;align=center;" vertex="1" parent="1">
          <mxGeometry x="240" y="760" width="100" height="40" as="geometry" />
        </mxCell>
        <mxCell id="1D7wFX3wcKnUC9iQgYK2-276" style="edgeStyle=orthogonalEdgeStyle;rounded=0;orthogonalLoop=1;jettySize=auto;html=1;entryX=0;entryY=0.5;entryDx=0;entryDy=0;entryPerimeter=0;" edge="1" parent="1" source="1D7wFX3wcKnUC9iQgYK2-272" target="1D7wFX3wcKnUC9iQgYK2-9">
          <mxGeometry relative="1" as="geometry" />
        </mxCell>
        <mxCell id="1D7wFX3wcKnUC9iQgYK2-277" style="edgeStyle=orthogonalEdgeStyle;rounded=0;orthogonalLoop=1;jettySize=auto;html=1;entryX=0.25;entryY=1;entryDx=0;entryDy=0;entryPerimeter=0;" edge="1" parent="1" source="1D7wFX3wcKnUC9iQgYK2-9" target="1D7wFX3wcKnUC9iQgYK2-4">
          <mxGeometry relative="1" as="geometry" />
        </mxCell>
        <mxCell id="1D7wFX3wcKnUC9iQgYK2-278" value="cognito-sign-in&lt;br style=&quot;font-size: 13px;&quot;&gt;function" style="text;strokeColor=none;fillColor=none;html=1;fontSize=13;fontStyle=1;verticalAlign=middle;align=center;" vertex="1" parent="1">
          <mxGeometry x="440" y="870" width="100" height="40" as="geometry" />
        </mxCell>
      </root>
    </mxGraphModel>
  </diagram>
</mxfile>
